<svg viewBox="0 0 320 320" xmlns="http://www.w3.org/2000/svg">
    <rect width="230" height="290" x="45" y="20" rx="15" fill="url(#a)" />
    <rect width="230" height="265" x="45" y="20" rx="15" fill="url(#b)" />
    <rect width="230" height="240" x="45" y="20" rx="15" fill="url(#c)" />
    <rect width="26" height="40" x="72" y="1" rx="11" fill="#057093" />
    <rect width="26" height="40" x="122" y="1" rx="11" fill="#057093" />
    <rect width="26" height="40" x="172" y="1" rx="11" fill="#057093" />
    <rect width="26" height="40" x="222" y="1" rx="11" fill="#057093" />
    <rect width="154" height="20" x="83" y="84" rx="5" fill="#057093" />
    <rect width="154" height="20" x="83" y="135" rx="5" fill="#057093" />
    <rect width="154" height="20" x="83" y="186" rx="5" fill="#057093" />
    <defs>
        <linearGradient id="a" x1="0" y1="260" x2="0" y2="310" gradientUnits="userSpaceOnUse">
            <stop offset="0" stop-color="#603008" />
            <stop offset="1" stop-color="#ae560c" />
        </linearGradient>
        <linearGradient id="b" x1="0" y1="245" x2="0" y2="295" gradientUnits="userSpaceOnUse">
            <stop offset="0" stop-color="#949494" />
            <stop offset="1" stop-color="#ffffff" />
        </linearGradient>
        <linearGradient id="c" x1="45" y1="20" x2="275" y2="260" gradientUnits="userSpaceOnUse">
            <stop offset="0" stop-color="#7ed9f4" />
            <stop offset="1" stop-color="#41aecd" />
        </linearGradient>
    </defs>
</svg>