<svg viewBox="0 0 320 320" xmlns="http://www.w3.org/2000/svg">
    <path d="M260 20a15 15 0 0 1 15 15v260a15 15 0 0 1 -15 15H60a15 15 0 0 1-15-15V35a15 15 0 0 1 15-15z"
        fill="url(#a)" />
    <path d="M260 20a15 15 0 0 1 15 15v235a15 15 0 0 1 -15 15H60a15 15 0 0 1-15-15V35a15 15 0 0 1 15-15z"
        fill="url(#b)" />
    <path d="M260 20a15 15 0 0 1 15 15v210a15 15 0 0 1 -15 15H60a15 15 0 0 1-15-15V35a15 15 0 0 1 15-15z"
        fill="url(#c)" />
    <path d="M87 1a11 11 0 0 1 11 11v18a11 11 0 0 1 -11 11h-3a11 11 0 0 1-11-11v-18a11 11 0 0 1 11-11z"
        fill="#057093" />
    <path d="M137 1a11 11 0 0 1 11 11v18a11 11 0 0 1 -11 11h-4a11 11 0 0 1-11-11v-18a11 11 0 0 1 11-11z"
        fill="#057093" />
    <path d="M187 1a11 11 0 0 1 11 11v18a11 11 0 0 1 -11 11h-4a11 11 0 0 1-11-11v-18a11 11 0 0 1 11-11z"
        fill="#057093" />
    <path d="M237 1a11 11 0 0 1 11 11v18a11 11 0 0 1 -11 11h-4a11 11 0 0 1-11-11v-18a11 11 0 0 1 11-11z"
        fill="#057093" />
    <path d="M232 84a5 5 0 0 1 5 5v10a5 5 0 0 1 -5 5h-144a5 5 0 0 1-5-5v-10a5 5 0 0 1 5-5z" fill="#057093" />
    <path d="M232 135a5 5 0 0 1 5 5v10a5 5 0 0 1 -5 5h-144a5 5 0 0 1-5-5v-10a5 5 0 0 1 5-5z" fill="#057093" />
    <path d="M232 186a5 5 0 0 1 5 5v10a5 5 0 0 1 -5 5h-144a5 5 0 0 1-5-5v-10a5 5 0 0 1 5-5z" fill="#057093" />
    <defs>
        <linearGradient id="a" x1="0" y1="260" x2="0" y2="310" gradientUnits="userSpaceOnUse">
            <stop offset="0" stop-color="#603008" />
            <stop offset="1" stop-color="#ae560c" />
        </linearGradient>
        <linearGradient id="b" x1="0" y1="245" x2="0" y2="295" gradientUnits="userSpaceOnUse">
            <stop offset="0" stop-color="#949494" />
            <stop offset="1" stop-color="#ffffff" />
        </linearGradient>
        <linearGradient id="c" x1="45" y1="20" x2="275" y2="260" gradientUnits="userSpaceOnUse">
            <stop offset="0" stop-color="#7ed9f4" />
            <stop offset="1" stop-color="#41aecd" />
        </linearGradient>
    </defs>
</svg>